<svg width="16" height="16" viewBox="0 0 16 16" fill="none" xmlns="http://www.w3.org/2000/svg">
<path fill-rule="evenodd" clip-rule="evenodd" d="M7.1514 2.488C6.95935 2.43663 6.75476 2.4636 6.58259 2.56301C6.41042 2.66241 6.28476 2.8261 6.23323 3.01811C6.18171 3.21006 6.20849 3.41462 6.30768 3.58684C6.30771 3.58689 6.30765 3.58679 6.30768 3.58684L7.93255 6.4012C8.07062 6.64035 7.98868 6.94614 7.74954 7.08422C7.51039 7.22229 7.2046 7.14035 7.06653 6.9012L5.44153 4.08662C5.20992 3.6847 5.14716 3.2069 5.26741 2.75889C5.38766 2.31087 5.68086 1.92892 6.08259 1.69698C6.48432 1.46504 6.9617 1.40209 7.40982 1.52197C7.85794 1.64184 8.24013 1.93472 8.4724 2.33626L10.9726 6.66675C11.1107 6.90589 11.0287 7.21169 10.7896 7.34976C10.5505 7.48783 10.2447 7.40589 10.1066 7.16675L7.6068 2.83698C7.60677 2.83693 7.60683 2.83703 7.6068 2.83698C7.50724 2.66497 7.3434 2.53936 7.1514 2.488Z" fill="#B3B3B3"/>
<path fill-rule="evenodd" clip-rule="evenodd" d="M4.48592 2.87033C4.39075 2.84478 4.29147 2.83824 4.19376 2.85108C4.09606 2.86393 4.00185 2.8959 3.9165 2.94517C3.83116 2.99444 3.75637 3.06005 3.69639 3.13824C3.63642 3.21644 3.59244 3.30568 3.56698 3.40088C3.54151 3.49607 3.53506 3.59536 3.54798 3.69305C3.56091 3.79074 3.59296 3.88493 3.6423 3.97023L6.01751 8.08421C6.15558 8.32336 6.07364 8.62916 5.8345 8.76723C5.59535 8.9053 5.28955 8.82336 5.15148 8.58421L2.77669 4.47096C2.77666 4.4709 2.77673 4.47101 2.77669 4.47096C2.66161 4.27197 2.58677 4.05208 2.55662 3.8242C2.52646 3.59625 2.54153 3.36459 2.60094 3.14246C2.66036 2.92034 2.76297 2.7121 2.90291 2.52965C3.04285 2.3472 3.21737 2.19411 3.4165 2.07914C3.61563 1.96418 3.83547 1.88958 4.06345 1.85961C4.29142 1.82965 4.52307 1.8449 4.74514 1.90451C4.96722 1.96411 5.17537 2.0669 5.35771 2.20699C5.53993 2.34699 5.69279 2.52152 5.80757 2.72059L7.93257 6.4012C8.07064 6.64035 7.9887 6.94614 7.74956 7.08421C7.51041 7.22229 7.20462 7.14035 7.06655 6.9012L4.94155 3.22059C4.89234 3.13521 4.82659 3.06 4.74845 2.99996C4.67031 2.93992 4.5811 2.89587 4.48592 2.87033Z" fill="#B3B3B3"/>
<path fill-rule="evenodd" clip-rule="evenodd" d="M11.1911 4.48395C11.0959 4.4584 10.9966 4.45186 10.8989 4.46471C10.8012 4.47755 10.707 4.50952 10.6217 4.55879C10.5363 4.60806 10.4615 4.67367 10.4015 4.75186C10.3416 4.83005 10.2976 4.9193 10.2721 5.0145C10.2467 5.1097 10.2402 5.20898 10.2531 5.30667C10.2661 5.40436 10.2981 5.49855 10.3475 5.58385L10.9727 6.66675C11.1107 6.90589 11.0288 7.21169 10.7897 7.34976C10.3303 7.61498 9.99509 8.05181 9.8578 8.56417C9.72051 9.07653 9.79239 9.62244 10.0576 10.0818C10.1957 10.321 10.1137 10.6268 9.87459 10.7648C9.63544 10.9029 9.32965 10.821 9.19158 10.5818C8.79375 9.89276 8.68595 9.07389 8.89187 8.30535C9.05415 7.69973 9.40077 7.16446 9.87761 6.77006L9.48185 6.08458C9.36671 5.88554 9.29193 5.66577 9.26178 5.43782C9.23162 5.20987 9.24668 4.97821 9.3061 4.75608C9.36552 4.53396 9.46813 4.32572 9.60807 4.14327C9.74801 3.96082 9.92253 3.80773 10.1217 3.69276C10.3208 3.5778 10.5406 3.5032 10.7686 3.47323C10.9966 3.44327 11.2282 3.45852 11.4503 3.51813C11.6724 3.57773 11.8805 3.68052 12.0629 3.82061C12.2451 3.96062 12.3979 4.13514 12.5127 4.33421L13.7627 6.49918C13.7627 6.49921 13.7627 6.49915 13.7627 6.49918C14.124 7.12467 14.3586 7.8153 14.453 8.53144C14.5474 9.24761 14.4998 9.97537 14.3129 10.6732C14.126 11.3709 13.8035 12.0251 13.3638 12.5982C12.9241 13.1713 12.3757 13.6522 11.7501 14.0134C11.1246 14.3746 10.4339 14.609 9.71774 14.7032C9.00154 14.7975 8.27379 14.7497 7.57605 14.5627C6.87831 14.3756 6.22425 14.053 5.65123 13.6131C5.0782 13.1733 4.59744 12.6249 4.23639 11.9992L1.86145 7.88566C1.62985 7.48374 1.56709 7.00594 1.68733 6.55792C1.80758 6.1099 2.10079 5.72796 2.50251 5.49602C2.90424 5.26408 3.38162 5.20113 3.82974 5.321C4.27786 5.44087 4.66005 5.73376 4.89233 6.13529L6.01753 8.08421C6.15561 8.32336 6.07367 8.62916 5.83452 8.76723C5.59538 8.9053 5.28958 8.82336 5.15151 8.58421L4.02672 6.63602C4.02668 6.63596 4.02675 6.63608 4.02672 6.63602C3.92716 6.46403 3.76331 6.33839 3.57132 6.28704C3.37927 6.23566 3.17468 6.26264 3.00251 6.36204C2.83034 6.46144 2.70468 6.62514 2.65315 6.81714C2.60163 7.00909 2.6284 7.21362 2.72758 7.38584C2.72761 7.3859 2.72754 7.38578 2.72758 7.38584L5.10247 11.4993C5.39787 12.0112 5.79128 12.46 6.26012 12.8199C6.72896 13.1798 7.2641 13.4437 7.83497 13.5968C8.40585 13.7498 9.00128 13.7889 9.58726 13.7118C10.1732 13.6347 10.7383 13.4429 11.2501 13.1474C11.762 12.8518 12.2106 12.4584 12.5704 11.9895C12.9302 11.5206 13.194 10.9854 13.3469 10.4144C13.4998 9.84353 13.5388 9.24809 13.4615 8.66213C13.3843 8.07617 13.1924 7.51116 12.8968 6.99937L11.6467 4.83421C11.5975 4.74883 11.5317 4.67362 11.4536 4.61358C11.3755 4.55354 11.2863 4.50949 11.1911 4.48395Z" fill="#B3B3B3"/>
<path fill-rule="evenodd" clip-rule="evenodd" d="M2.75058 12.316C2.98992 12.1783 3.2956 12.2607 3.43333 12.5C3.91091 13.3299 4.56668 14.0435 5.35338 14.5894C5.58026 14.7468 5.63657 15.0583 5.47915 15.2852C5.32173 15.5121 5.0102 15.5684 4.78332 15.411C3.87507 14.7808 3.11796 13.9569 2.5666 12.9988C2.42886 12.7595 2.51123 12.4538 2.75058 12.316Z" fill="#B3B3B3"/>
<path fill-rule="evenodd" clip-rule="evenodd" d="M12.3749 2.80588C11.9569 2.56449 11.4827 2.43744 11.0001 2.4375C10.7239 2.43754 10.5 2.21371 10.5 1.93757C10.5 1.66142 10.7238 1.43754 10.9999 1.4375C11.6582 1.43741 12.3049 1.6107 12.875 1.93993C13.445 2.26916 13.9183 2.74272 14.2472 3.31295C14.3852 3.55216 14.3031 3.85792 14.0639 3.99589C13.8247 4.13386 13.519 4.05179 13.381 3.81259C13.1398 3.39449 12.7928 3.04727 12.3749 2.80588Z" fill="#B3B3B3"/>
</svg>
