<svg width="13" height="13" viewBox="0 0 13 13" fill="none" xmlns="http://www.w3.org/2000/svg">
<path opacity="0.3" d="M6.30957 12.7202C9.75635 12.7202 12.6064 9.86377 12.6064 6.41699C12.6064 2.97656 9.75 0.11377 6.30322 0.11377C2.85645 0.11377 0 2.97656 0 6.41699C0 9.86377 2.86279 12.7202 6.30957 12.7202ZM4.48145 3.12891C4.85596 2.18311 5.37646 1.50391 5.94141 1.29443V3.2749C5.41455 3.26221 4.93213 3.21143 4.48145 3.12891ZM6.67139 1.29443C7.22998 1.50391 7.75049 2.18311 8.125 3.12891C7.68066 3.21143 7.19189 3.26221 6.67139 3.2749V1.29443ZM8.00439 1.47217C8.68359 1.70703 9.29932 2.06885 9.81982 2.54492C9.53418 2.70361 9.21045 2.83691 8.84863 2.95117C8.62012 2.36084 8.33447 1.85938 8.00439 1.47217ZM2.78662 2.54492C3.30713 2.0752 3.92285 1.70703 4.60205 1.47217C4.27832 1.85938 3.98633 2.36084 3.75781 2.95117C3.396 2.83691 3.07227 2.70361 2.78662 2.54492ZM9.45166 6.04883C9.41992 5.1665 9.29297 4.34766 9.07715 3.62402C9.55322 3.47803 9.97852 3.29395 10.3276 3.07812C11.0068 3.89062 11.4385 4.91895 11.5146 6.04883H9.45166ZM1.09814 6.04883C1.17432 4.91895 1.60596 3.89062 2.27881 3.07812C2.63428 3.29395 3.05322 3.47803 3.5293 3.62402C3.31982 4.34766 3.18652 5.1665 3.15479 6.04883H1.09814ZM6.67139 6.04883V4.00488C7.26172 3.98584 7.82666 3.91602 8.35352 3.80811C8.55029 4.4873 8.6709 5.24902 8.70264 6.04883H6.67139ZM3.90381 6.04883C3.93555 5.24902 4.0625 4.4873 4.25293 3.80811C4.77979 3.91602 5.34473 3.98584 5.94141 4.00488V6.04883H3.90381ZM1.0918 6.77881H3.15479C3.18018 7.67383 3.31348 8.51172 3.5293 9.2417C3.05957 9.3877 2.64697 9.56543 2.29785 9.78125C1.6123 8.95605 1.17432 7.92139 1.0918 6.77881ZM3.90381 6.77881H5.94141V8.86084C5.34473 8.87988 4.77979 8.94336 4.25293 9.05762C4.05615 8.37207 3.9292 7.59131 3.90381 6.77881ZM6.67139 8.86084V6.77881H8.70264C8.67725 7.59131 8.55029 8.37207 8.35352 9.05762C7.82666 8.94336 7.26172 8.87988 6.67139 8.86084ZM9.07715 9.2417C9.29297 8.51172 9.42627 7.67383 9.45166 6.77881H11.521C11.4448 7.92139 11.0068 8.9624 10.3213 9.78125C9.96582 9.57178 9.54688 9.3877 9.07715 9.2417ZM4.48145 9.73682C4.93213 9.6543 5.41455 9.60352 5.94141 9.59082V11.5713C5.37646 11.3618 4.85596 10.6826 4.48145 9.73682ZM6.67139 9.59082C7.19189 9.60352 7.68066 9.6543 8.125 9.73682C7.75049 10.6826 7.22998 11.3618 6.67139 11.5713V9.59082ZM2.81201 10.3081C3.09131 10.1558 3.40234 10.0225 3.75781 9.91455C3.97998 10.4858 4.25928 10.9683 4.57031 11.3555C3.91016 11.127 3.31348 10.7651 2.81201 10.3081ZM8.84863 9.91455C9.2041 10.0225 9.52148 10.1558 9.80713 10.3145C9.29297 10.7715 8.69629 11.1333 8.02979 11.3618C8.34717 10.9746 8.62646 10.4858 8.84863 9.91455Z" fill="white"/>
</svg>
