<svg width="16" height="16" viewBox="0 0 16 16" fill="none" xmlns="http://www.w3.org/2000/svg">
<path fill-rule="evenodd" clip-rule="evenodd" d="M7.15145 2.488C6.9594 2.43662 6.75481 2.4636 6.58264 2.563C6.41047 2.6624 6.28481 2.8261 6.23327 3.0181C6.18175 3.21006 6.20853 3.41461 6.30772 3.58684C6.30775 3.58688 6.3077 3.58679 6.30772 3.58684L7.9326 6.4012C8.07067 6.64035 7.98873 6.94614 7.74958 7.08421C7.51044 7.22228 7.20464 7.14035 7.06657 6.9012L5.44157 4.08662C5.20997 3.68469 5.14721 3.2069 5.26746 2.75888C5.3877 2.31086 5.68091 1.92891 6.08264 1.69698C6.48437 1.46504 6.96174 1.40209 7.40986 1.52196C7.85798 1.64183 8.24018 1.93472 8.47245 2.33625L10.9727 6.66674C11.1107 6.90589 11.0288 7.21168 10.7896 7.34975C10.5505 7.48783 10.2447 7.40589 10.1066 7.16674L7.60684 2.83698C7.60681 2.83693 7.60687 2.83703 7.60684 2.83698C7.50729 2.66497 7.34344 2.53935 7.15145 2.488Z" fill="#5E6163"/>
<path fill-rule="evenodd" clip-rule="evenodd" d="M4.48595 2.87033C4.39078 2.84478 4.2915 2.83824 4.1938 2.85108C4.09609 2.86393 4.00188 2.8959 3.91653 2.94517C3.83119 2.99444 3.7564 3.06005 3.69642 3.13824C3.63645 3.21644 3.59247 3.30568 3.56701 3.40088C3.54154 3.49607 3.53509 3.59536 3.54801 3.69305C3.56094 3.79074 3.59299 3.88493 3.64233 3.97023L6.01754 8.08421C6.15561 8.32336 6.07367 8.62916 5.83453 8.76723C5.59538 8.9053 5.28958 8.82336 5.15151 8.58421L2.77672 4.47096C2.77669 4.4709 2.77676 4.47101 2.77672 4.47096C2.66164 4.27197 2.5868 4.05208 2.55665 3.8242C2.52649 3.59625 2.54156 3.36459 2.60097 3.14246C2.66039 2.92034 2.76301 2.7121 2.90294 2.52965C3.04288 2.3472 3.2174 2.19411 3.41653 2.07914C3.61566 1.96418 3.8355 1.88958 4.06348 1.85961C4.29145 1.82965 4.5231 1.8449 4.74517 1.90451C4.96725 1.96411 5.1754 2.0669 5.35774 2.20699C5.53996 2.34699 5.69282 2.52152 5.8076 2.72059L7.9326 6.4012C8.07067 6.64035 7.98873 6.94614 7.74959 7.08421C7.51044 7.22229 7.20465 7.14035 7.06658 6.9012L4.94158 3.22059C4.89237 3.13521 4.82662 3.06 4.74848 2.99996C4.67034 2.93992 4.58113 2.89587 4.48595 2.87033Z" fill="#5E6163"/>
<path fill-rule="evenodd" clip-rule="evenodd" d="M11.1911 4.48394C11.0959 4.4584 10.9966 4.45186 10.8989 4.4647C10.8012 4.47754 10.707 4.50951 10.6217 4.55879C10.5363 4.60806 10.4615 4.67367 10.4015 4.75186C10.3416 4.83005 10.2976 4.9193 10.2721 5.01449C10.2467 5.10969 10.2402 5.20897 10.2531 5.30667C10.2661 5.40436 10.2981 5.49855 10.3475 5.58385L10.9727 6.66674C11.1107 6.90589 11.0288 7.21168 10.7897 7.34976C10.3303 7.61497 9.99509 8.05181 9.8578 8.56417C9.72051 9.07653 9.79239 9.62244 10.0576 10.0818C10.1957 10.321 10.1137 10.6267 9.87459 10.7648C9.63544 10.9029 9.32965 10.821 9.19158 10.5818C8.79375 9.89275 8.68595 9.07389 8.89187 8.30535C9.05415 7.69973 9.40077 7.16445 9.87761 6.77006L9.48185 6.08457C9.36671 5.88554 9.29193 5.66577 9.26178 5.43781C9.23162 5.20986 9.24668 4.97821 9.3061 4.75608C9.36552 4.53395 9.46813 4.32571 9.60807 4.14326C9.74801 3.96081 9.92253 3.80773 10.1217 3.69276C10.3208 3.57779 10.5406 3.50319 10.7686 3.47323C10.9966 3.44326 11.2282 3.45852 11.4503 3.51812C11.6724 3.57773 11.8805 3.68051 12.0629 3.82061C12.2451 3.96061 12.3979 4.13513 12.5127 4.33421L13.7627 6.49918C13.7627 6.49921 13.7627 6.49914 13.7627 6.49918C14.124 7.12466 14.3586 7.81529 14.453 8.53143C14.5474 9.24761 14.4998 9.97537 14.3129 10.6732C14.126 11.3709 13.8035 12.0251 13.3638 12.5982C12.9241 13.1713 12.3757 13.6522 11.7501 14.0134C11.1246 14.3746 10.4339 14.609 9.71774 14.7032C9.00154 14.7975 8.27379 14.7497 7.57605 14.5627C6.87831 14.3756 6.22425 14.053 5.65123 13.6131C5.0782 13.1733 4.59744 12.6249 4.23639 11.9992L1.86145 7.88565C1.62985 7.48373 1.56709 7.00594 1.68733 6.55792C1.80758 6.1099 2.10079 5.72795 2.50251 5.49601C2.90424 5.26408 3.38162 5.20113 3.82974 5.321C4.27786 5.44087 4.66005 5.73376 4.89233 6.13529L6.01753 8.08421C6.15561 8.32336 6.07367 8.62915 5.83452 8.76722C5.59538 8.90529 5.28958 8.82336 5.15151 8.58421L4.02672 6.63601C4.02668 6.63595 4.02675 6.63608 4.02672 6.63601C3.92716 6.46402 3.76331 6.33839 3.57132 6.28703C3.37927 6.23566 3.17468 6.26264 3.00251 6.36204C2.83034 6.46144 2.70468 6.62513 2.65315 6.81714C2.60163 7.00908 2.6284 7.21362 2.72758 7.38583C2.72761 7.38589 2.72754 7.38577 2.72758 7.38583L5.10247 11.4993C5.39787 12.0112 5.79128 12.46 6.26012 12.8199C6.72896 13.1797 7.2641 13.4437 7.83497 13.5968C8.40585 13.7498 9.00128 13.7889 9.58726 13.7118C10.1732 13.6347 10.7383 13.4429 11.2501 13.1474C11.762 12.8518 12.2106 12.4584 12.5704 11.9895C12.9302 11.5205 13.194 10.9854 13.3469 10.4144C13.4998 9.84353 13.5388 9.24809 13.4615 8.66213C13.3843 8.07616 13.1924 7.51115 12.8968 6.99937L11.6467 4.83421C11.5975 4.74883 11.5317 4.67362 11.4536 4.61358C11.3755 4.55354 11.2863 4.50949 11.1911 4.48394Z" fill="#5E6163"/>
<path fill-rule="evenodd" clip-rule="evenodd" d="M2.75061 12.316C2.98995 12.1783 3.29563 12.2607 3.43336 12.5C3.91094 13.3299 4.56671 14.0435 5.35341 14.5894C5.58029 14.7468 5.6366 15.0583 5.47918 15.2852C5.32176 15.5121 5.01023 15.5684 4.78335 15.411C3.8751 14.7808 3.118 13.9569 2.56663 12.9988C2.42889 12.7595 2.51127 12.4538 2.75061 12.316Z" fill="#5E6163"/>
<path fill-rule="evenodd" clip-rule="evenodd" d="M12.3749 2.80588C11.9569 2.56449 11.4827 2.43744 11.0001 2.4375C10.7239 2.43754 10.5 2.21371 10.5 1.93757C10.5 1.66142 10.7238 1.43754 10.9999 1.4375C11.6582 1.43741 12.3049 1.6107 12.875 1.93993C13.445 2.26916 13.9183 2.74272 14.2472 3.31295C14.3852 3.55216 14.3031 3.85792 14.0639 3.99589C13.8247 4.13386 13.519 4.05179 13.381 3.81259C13.1398 3.39449 12.7928 3.04727 12.3749 2.80588Z" fill="#5E6163"/>
</svg>
