<svg width="13" height="13" viewBox="0 0 13 13" fill="none" xmlns="http://www.w3.org/2000/svg">
<path opacity="0.3" d="M6.50635 12.7202C9.95312 12.7202 12.8032 9.86377 12.8032 6.41699C12.8032 2.97656 9.94678 0.11377 6.5 0.11377C3.05322 0.11377 0.196777 2.97656 0.196777 6.41699C0.196777 9.86377 3.05957 12.7202 6.50635 12.7202ZM4.67822 3.12891C5.05273 2.18311 5.57324 1.50391 6.13818 1.29443V3.2749C5.61133 3.26221 5.12891 3.21143 4.67822 3.12891ZM6.86816 1.29443C7.42676 1.50391 7.94727 2.18311 8.32178 3.12891C7.87744 3.21143 7.38867 3.26221 6.86816 3.2749V1.29443ZM8.20117 1.47217C8.88037 1.70703 9.49609 2.06885 10.0166 2.54492C9.73096 2.70361 9.40723 2.83691 9.04541 2.95117C8.81689 2.36084 8.53125 1.85938 8.20117 1.47217ZM2.9834 2.54492C3.50391 2.0752 4.11963 1.70703 4.79883 1.47217C4.4751 1.85938 4.18311 2.36084 3.95459 2.95117C3.59277 2.83691 3.26904 2.70361 2.9834 2.54492ZM9.64844 6.04883C9.6167 5.1665 9.48975 4.34766 9.27393 3.62402C9.75 3.47803 10.1753 3.29395 10.5244 3.07812C11.2036 3.89062 11.6353 4.91895 11.7114 6.04883H9.64844ZM1.29492 6.04883C1.37109 4.91895 1.80273 3.89062 2.47559 3.07812C2.83105 3.29395 3.25 3.47803 3.72607 3.62402C3.5166 4.34766 3.3833 5.1665 3.35156 6.04883H1.29492ZM6.86816 6.04883V4.00488C7.4585 3.98584 8.02344 3.91602 8.55029 3.80811C8.74707 4.4873 8.86768 5.24902 8.89941 6.04883H6.86816ZM4.10059 6.04883C4.13232 5.24902 4.25928 4.4873 4.44971 3.80811C4.97656 3.91602 5.5415 3.98584 6.13818 4.00488V6.04883H4.10059ZM1.28857 6.77881H3.35156C3.37695 7.67383 3.51025 8.51172 3.72607 9.2417C3.25635 9.3877 2.84375 9.56543 2.49463 9.78125C1.80908 8.95605 1.37109 7.92139 1.28857 6.77881ZM4.10059 6.77881H6.13818V8.86084C5.5415 8.87988 4.97656 8.94336 4.44971 9.05762C4.25293 8.37207 4.12598 7.59131 4.10059 6.77881ZM6.86816 8.86084V6.77881H8.89941C8.87402 7.59131 8.74707 8.37207 8.55029 9.05762C8.02344 8.94336 7.4585 8.87988 6.86816 8.86084ZM9.27393 9.2417C9.48975 8.51172 9.62305 7.67383 9.64844 6.77881H11.7178C11.6416 7.92139 11.2036 8.9624 10.5181 9.78125C10.1626 9.57178 9.74365 9.3877 9.27393 9.2417ZM4.67822 9.73682C5.12891 9.6543 5.61133 9.60352 6.13818 9.59082V11.5713C5.57324 11.3618 5.05273 10.6826 4.67822 9.73682ZM6.86816 9.59082C7.38867 9.60352 7.87744 9.6543 8.32178 9.73682C7.94727 10.6826 7.42676 11.3618 6.86816 11.5713V9.59082ZM3.00879 10.3081C3.28809 10.1558 3.59912 10.0225 3.95459 9.91455C4.17676 10.4858 4.45605 10.9683 4.76709 11.3555C4.10693 11.127 3.51025 10.7651 3.00879 10.3081ZM9.04541 9.91455C9.40088 10.0225 9.71826 10.1558 10.0039 10.3145C9.48975 10.7715 8.89307 11.1333 8.22656 11.3618C8.54395 10.9746 8.82324 10.4858 9.04541 9.91455Z" fill="black"/>
</svg>
