<svg width="11" height="12" viewBox="0 0 11 12" fill="none" xmlns="http://www.w3.org/2000/svg">
<path opacity="0.3" d="M4.16699 11.022C4.43994 11.022 4.65576 10.9014 4.80811 10.6665L10.8066 1.22119C10.9209 1.03711 10.9653 0.897461 10.9653 0.751465C10.9653 0.402344 10.7368 0.173828 10.3877 0.173828C10.1338 0.173828 9.99414 0.256348 9.8418 0.497559L4.1416 9.58105L1.18359 5.70898C1.0249 5.48682 0.866211 5.39795 0.637695 5.39795C0.275879 5.39795 0.0283203 5.64551 0.0283203 5.99463C0.0283203 6.14062 0.0917969 6.30566 0.212402 6.45801L3.50684 10.6538C3.69727 10.9014 3.89404 11.022 4.16699 11.022Z" fill="black"/>
</svg>
