<svg width="12" height="12" viewBox="0 0 12 12" fill="none" xmlns="http://www.w3.org/2000/svg">
<path opacity="0.3" d="M4.75665 11.022C5.0296 11.022 5.24542 10.9014 5.39777 10.6665L11.3963 1.22119C11.5106 1.03711 11.555 0.897461 11.555 0.751465C11.555 0.402344 11.3265 0.173828 10.9774 0.173828C10.7234 0.173828 10.5838 0.256348 10.4315 0.497559L4.73126 9.58105L1.77325 5.70898C1.61456 5.48682 1.45587 5.39795 1.22736 5.39795C0.86554 5.39795 0.617981 5.64551 0.617981 5.99463C0.617981 6.14062 0.681458 6.30566 0.802063 6.45801L4.0965 10.6538C4.28693 10.9014 4.4837 11.022 4.75665 11.022Z" fill="white"/>
</svg>
