<svg width="13" height="14" viewBox="0 0 13 14" fill="none" xmlns="http://www.w3.org/2000/svg">
<path opacity="0.3" d="M6.47461 13.8916C10.0166 13.8916 12.9492 10.959 12.9492 7.41699C12.9492 3.88135 10.0103 0.942383 6.46826 0.942383C2.93262 0.942383 0 3.88135 0 7.41699C0 10.959 2.93896 13.8916 6.47461 13.8916ZM6.47461 12.8125C3.47852 12.8125 1.08545 10.4131 1.08545 7.41699C1.08545 4.42725 3.47217 2.02148 6.46826 2.02148C9.46436 2.02148 11.8638 4.42725 11.8701 7.41699C11.8765 10.4131 9.4707 12.8125 6.47461 12.8125ZM6.46826 11.0479C6.63965 11.0479 6.77295 10.9209 6.77295 10.7432V10.2988C7.75049 10.2036 8.51855 9.63232 8.51855 8.67383C8.51855 7.81055 7.95996 7.29004 6.85547 7.09326L6.77295 7.07422V5.30957C7.22363 5.38574 7.54102 5.65869 7.66797 6.09033C7.73145 6.28076 7.85205 6.40137 8.05518 6.40137C8.271 6.40137 8.42969 6.24268 8.42969 6.02686C8.42969 5.95703 8.41064 5.8999 8.39795 5.83008C8.23291 5.13818 7.58545 4.66846 6.77295 4.57959V4.1416C6.77295 3.96387 6.63965 3.83691 6.46826 3.83691C6.29688 3.83691 6.16992 3.95752 6.16992 4.1416V4.57959C5.20508 4.6875 4.52588 5.28418 4.52588 6.14746C4.52588 6.95361 5.06543 7.43604 6.12549 7.68359L6.16992 7.69629V9.5752C5.59863 9.49268 5.26221 9.18164 5.16064 8.75635C5.09082 8.54053 4.95752 8.43896 4.76709 8.43896C4.55127 8.43896 4.39893 8.59131 4.39893 8.81348C4.39893 8.8833 4.41162 8.94043 4.43066 9.01025C4.6084 9.74023 5.31934 10.2036 6.16992 10.2925V10.7432C6.16992 10.9272 6.29688 11.0479 6.46826 11.0479ZM6.16992 6.92188L6.12549 6.90918C5.5542 6.73779 5.30664 6.49023 5.30664 6.10938C5.30664 5.72217 5.63037 5.39844 6.16992 5.30957V6.92188ZM6.77295 7.85498L6.90625 7.88672C7.52197 8.05811 7.73779 8.31836 7.73779 8.71826C7.73779 9.16895 7.42041 9.50537 6.77295 9.5752V7.85498Z" fill="white"/>
</svg>
