<svg width="14" height="14" viewBox="0 0 14 14" fill="none" xmlns="http://www.w3.org/2000/svg">
<path opacity="0.3" d="M7 13.8916C10.542 13.8916 13.4746 10.959 13.4746 7.41699C13.4746 3.88135 10.5356 0.942383 6.99365 0.942383C3.45801 0.942383 0.525391 3.88135 0.525391 7.41699C0.525391 10.959 3.46436 13.8916 7 13.8916ZM7 12.8125C4.00391 12.8125 1.61084 10.4131 1.61084 7.41699C1.61084 4.42725 3.99756 2.02148 6.99365 2.02148C9.98975 2.02148 12.3892 4.42725 12.3955 7.41699C12.4019 10.4131 9.99609 12.8125 7 12.8125ZM6.99365 11.0479C7.16504 11.0479 7.29834 10.9209 7.29834 10.7432V10.2988C8.27588 10.2036 9.04395 9.63232 9.04395 8.67383C9.04395 7.81055 8.48535 7.29004 7.38086 7.09326L7.29834 7.07422V5.30957C7.74902 5.38574 8.06641 5.65869 8.19336 6.09033C8.25684 6.28076 8.37744 6.40137 8.58057 6.40137C8.79639 6.40137 8.95508 6.24268 8.95508 6.02686C8.95508 5.95703 8.93604 5.8999 8.92334 5.83008C8.7583 5.13818 8.11084 4.66846 7.29834 4.57959V4.1416C7.29834 3.96387 7.16504 3.83691 6.99365 3.83691C6.82227 3.83691 6.69531 3.95752 6.69531 4.1416V4.57959C5.73047 4.6875 5.05127 5.28418 5.05127 6.14746C5.05127 6.95361 5.59082 7.43604 6.65088 7.68359L6.69531 7.69629V9.5752C6.12402 9.49268 5.7876 9.18164 5.68604 8.75635C5.61621 8.54053 5.48291 8.43896 5.29248 8.43896C5.07666 8.43896 4.92432 8.59131 4.92432 8.81348C4.92432 8.8833 4.93701 8.94043 4.95605 9.01025C5.13379 9.74023 5.84473 10.2036 6.69531 10.2925V10.7432C6.69531 10.9272 6.82227 11.0479 6.99365 11.0479ZM6.69531 6.92188L6.65088 6.90918C6.07959 6.73779 5.83203 6.49023 5.83203 6.10938C5.83203 5.72217 6.15576 5.39844 6.69531 5.30957V6.92188ZM7.29834 7.85498L7.43164 7.88672C8.04736 8.05811 8.26318 8.31836 8.26318 8.71826C8.26318 9.16895 7.9458 9.50537 7.29834 9.5752V7.85498Z" fill="black"/>
</svg>
