<svg width="16" height="16" viewBox="0 0 16 16" fill="none" xmlns="http://www.w3.org/2000/svg">
<path fill-rule="evenodd" clip-rule="evenodd" d="M9.86168 2.26647C10.3349 2.07787 10.8416 1.98766 11.3509 2.00136C11.8601 2.01505 12.3613 2.13236 12.8237 2.34613C13.286 2.55982 13.6999 2.86544 14.0402 3.24434C15.4191 4.77587 15.1782 7.12515 13.7716 8.53169L8.70711 13.5962C8.51957 13.7837 8.26522 13.8891 8 13.8891C7.73478 13.8891 7.48043 13.7837 7.2929 13.5962L2.09835 8.40165C1.73813 8.04142 1.45508 7.61156 1.26647 7.13832C1.07787 6.66508 0.987661 6.15838 1.00136 5.64912C1.01505 5.13987 1.13236 4.63874 1.34613 4.17632C1.55984 3.71401 1.86549 3.30008 2.24442 2.95977C3.77596 1.58092 6.12518 1.82187 7.53169 3.22838L8 3.6967L8.59836 3.09835C8.95859 2.73813 9.38844 2.45508 9.86168 2.26647ZM11.324 3.00099C10.9505 2.99095 10.579 3.0571 10.2319 3.19542C9.88486 3.33373 9.56963 3.5413 9.30546 3.80546C9.30546 3.80546 9.30546 3.80546 9.30546 3.80546L8.35355 4.75736C8.15829 4.95262 7.84171 4.95262 7.64645 4.75736L6.82458 3.93549C5.74237 2.85328 3.99733 2.72699 2.91332 3.70312C2.63534 3.95272 2.41059 4.25682 2.25383 4.59593C2.09706 4.93505 2.01104 5.30254 2.00099 5.676C1.99095 6.04946 2.0571 6.42105 2.19542 6.7681C2.33373 7.11514 2.5413 7.43037 2.80546 7.69455C2.80546 7.69455 2.80546 7.69454 2.80546 7.69455L8 12.8891L13.0645 7.82458C14.1467 6.74237 14.273 4.99733 13.2969 3.91332C13.0473 3.63534 12.7432 3.41059 12.4041 3.25383C12.065 3.09706 11.6975 3.01104 11.324 3.00099Z" fill="#5E6163"/>
</svg>
