<svg width="16" height="16" viewBox="0 0 16 16" fill="none" xmlns="http://www.w3.org/2000/svg">
<path fill-rule="evenodd" clip-rule="evenodd" d="M9.86168 2.26647C10.3349 2.07786 10.8416 1.98765 11.3509 2.00135C11.8601 2.01504 12.3613 2.13235 12.8237 2.34612C13.286 2.55982 13.6999 2.86543 14.0402 3.24433C15.4191 4.77587 15.1782 7.12514 13.7716 8.53168L8.70711 13.5962C8.51957 13.7837 8.26522 13.8891 8 13.8891C7.73478 13.8891 7.48043 13.7837 7.2929 13.5962L2.09835 8.40164C1.73813 8.04141 1.45508 7.61155 1.26647 7.13831C1.07787 6.66507 0.987661 6.15837 1.00136 5.64911C1.01505 5.13986 1.13236 4.63873 1.34613 4.17631C1.55984 3.714 1.86549 3.30007 2.24442 2.95976C3.77596 1.58091 6.12518 1.82186 7.53169 3.22838L8 3.69669L8.59836 3.09834C8.95859 2.73812 9.38844 2.45507 9.86168 2.26647ZM11.324 3.00099C10.9505 2.99094 10.579 3.0571 10.2319 3.19541C9.88486 3.33372 9.56963 3.54129 9.30546 3.80545C9.30546 3.80546 9.30546 3.80545 9.30546 3.80545L8.35355 4.75735C8.15829 4.95261 7.84171 4.95261 7.64645 4.75735L6.82458 3.93548C5.74237 2.85327 3.99733 2.72699 2.91332 3.70312C2.63534 3.95271 2.41059 4.25681 2.25383 4.59592C2.09706 4.93504 2.01104 5.30254 2.00099 5.67599C1.99095 6.04945 2.0571 6.42104 2.19542 6.76809C2.33373 7.11514 2.5413 7.43036 2.80546 7.69454C2.80546 7.69454 2.80546 7.69454 2.80546 7.69454L8 12.8891L13.0645 7.82457C14.1467 6.74236 14.273 4.99732 13.2969 3.91332C13.0473 3.63533 12.7432 3.41059 12.4041 3.25382C12.065 3.09706 11.6975 3.01103 11.324 3.00099Z" fill="#B3B3B3"/>
</svg>
