<svg width="13" height="14" viewBox="0 0 13 14" fill="none" xmlns="http://www.w3.org/2000/svg">
<path opacity="0.3" d="M6.30957 7.35352C6.61426 7.35352 6.82373 7.13135 6.82373 6.81396V1.11377C6.82373 0.790039 6.61426 0.574219 6.30957 0.574219C6.00488 0.574219 5.80176 0.790039 5.80176 1.11377V6.81396C5.80176 7.13135 6.00488 7.35352 6.30957 7.35352ZM6.30957 13.7202C9.75635 13.7202 12.6191 10.8638 12.6191 7.41699C12.6191 5.54443 11.7749 3.84326 10.4482 2.68799C9.92773 2.21826 9.17236 2.96094 9.76904 3.48779C10.8545 4.43359 11.54 5.84912 11.54 7.41699C11.54 10.3179 9.21045 12.6475 6.30957 12.6475C3.40869 12.6475 1.08545 10.3179 1.08545 7.41699C1.08545 5.84912 1.76465 4.43994 2.8501 3.48779C3.45312 2.96094 2.69141 2.21826 2.1709 2.68799C0.844238 3.84326 0 5.54443 0 7.41699C0 10.8638 2.86279 13.7202 6.30957 13.7202Z" fill="white"/>
</svg>
