<svg width="13" height="14" viewBox="0 0 13 14" fill="none" xmlns="http://www.w3.org/2000/svg">
<path opacity="0.3" d="M6.5 7.35352C6.80469 7.35352 7.01416 7.13135 7.01416 6.81396V1.11377C7.01416 0.790039 6.80469 0.574219 6.5 0.574219C6.19531 0.574219 5.99219 0.790039 5.99219 1.11377V6.81396C5.99219 7.13135 6.19531 7.35352 6.5 7.35352ZM6.5 13.7202C9.94678 13.7202 12.8096 10.8638 12.8096 7.41699C12.8096 5.54443 11.9653 3.84326 10.6387 2.68799C10.1182 2.21826 9.36279 2.96094 9.95947 3.48779C11.0449 4.43359 11.7305 5.84912 11.7305 7.41699C11.7305 10.3179 9.40088 12.6475 6.5 12.6475C3.59912 12.6475 1.27588 10.3179 1.27588 7.41699C1.27588 5.84912 1.95508 4.43994 3.04053 3.48779C3.64355 2.96094 2.88184 2.21826 2.36133 2.68799C1.03467 3.84326 0.19043 5.54443 0.19043 7.41699C0.19043 10.8638 3.05322 13.7202 6.5 13.7202Z" fill="black"/>
</svg>
