<svg width="16" height="16" viewBox="0 0 16 16" fill="none" xmlns="http://www.w3.org/2000/svg">
<path fill-rule="evenodd" clip-rule="evenodd" d="M7.99951 2.50018C8.27565 2.50018 8.49951 2.72404 8.49951 3.00018V7.75018C8.49951 8.02633 8.27565 8.25018 7.99951 8.25018C7.72337 8.25018 7.49951 8.02633 7.49951 7.75018V3.00018C7.49951 2.72404 7.72337 2.50018 7.99951 2.50018Z" fill="#5E6163"/>
<path fill-rule="evenodd" clip-rule="evenodd" d="M5.41897 3.11679C5.56959 3.34823 5.50408 3.65796 5.27264 3.80859C4.36926 4.39652 3.68006 5.26064 3.30776 6.27214C2.93545 7.28364 2.89997 8.38838 3.20661 9.42169C3.51324 10.455 4.14558 11.3616 5.00937 12.0062C5.87315 12.6509 6.92214 12.9992 7.99999 12.9992C9.07784 12.9992 10.1268 12.6509 10.9906 12.0063C11.8544 11.3616 12.4867 10.455 12.7934 9.42171C13.1 8.3884 13.0646 7.28367 12.6923 6.27216C12.32 5.26066 11.6308 4.39654 10.7274 3.8086C10.4959 3.65797 10.4304 3.34824 10.5811 3.1168C10.7317 2.88536 11.0414 2.81984 11.2729 2.97047C12.3569 3.676 13.1839 4.71294 13.6307 5.92675C14.0775 7.14055 14.12 8.46623 13.7521 9.7062C13.3841 10.9462 12.6253 12.034 11.5887 12.8077C10.5522 13.5813 9.2934 13.9992 7.99999 13.9992C6.70657 13.9992 5.44778 13.5813 4.41124 12.8076C3.37469 12.034 2.61589 10.9461 2.24793 9.70618C1.87996 8.46621 1.92254 7.14053 2.36931 5.92672C2.81608 4.71292 3.64312 3.67598 4.72717 2.97046C4.95861 2.81983 5.26834 2.88534 5.41897 3.11679Z" fill="#5E6163"/>
</svg>
