<svg width="16" height="16" viewBox="0 0 16 16" fill="none" xmlns="http://www.w3.org/2000/svg">
<path fill-rule="evenodd" clip-rule="evenodd" d="M1.9895 2.73224C2.26564 2.73224 2.4895 2.9561 2.4895 3.23224V5.73224H4.9895C5.26564 5.73224 5.4895 5.9561 5.4895 6.23224C5.4895 6.50838 5.26564 6.73224 4.9895 6.73224H1.9895C1.71336 6.73224 1.4895 6.50838 1.4895 6.23224V3.23224C1.4895 2.9561 1.71336 2.73224 1.9895 2.73224Z" fill="black"/>
<path fill-rule="evenodd" clip-rule="evenodd" d="M5.70393 2.45672C6.43188 2.15519 7.2121 2 8.00003 2C8.78796 2 9.56818 2.15519 10.2961 2.45672C11.0241 2.75825 11.6855 3.20021 12.2427 3.75736C12.4379 3.95262 12.4379 4.2692 12.2427 4.46447C12.0474 4.65973 11.7308 4.65973 11.5356 4.46447C11.0713 4.00017 10.5201 3.63188 9.91345 3.3806C9.30682 3.12933 8.65664 3 8.00003 3C7.34342 3 6.69324 3.12933 6.08661 3.3806C5.47999 3.63188 4.92879 4.00017 4.4645 4.46447L2.34318 6.58579C2.14792 6.78105 1.83133 6.78105 1.63607 6.58579C1.44081 6.39053 1.44081 6.07394 1.63607 5.87868L3.75739 3.75736C4.31454 3.20021 4.97598 2.75825 5.70393 2.45672Z" fill="black"/>
<path fill-rule="evenodd" clip-rule="evenodd" d="M10.5105 9.76776C10.5105 9.49162 10.7344 9.26776 11.0105 9.26776H14.0105C14.2866 9.26776 14.5105 9.49162 14.5105 9.76776V12.7678C14.5105 13.0439 14.2866 13.2678 14.0105 13.2678C13.7344 13.2678 13.5105 13.0439 13.5105 12.7678V10.2678H11.0105C10.7344 10.2678 10.5105 10.0439 10.5105 9.76776Z" fill="black"/>
<path fill-rule="evenodd" clip-rule="evenodd" d="M14.364 9.41421C14.5593 9.60947 14.5593 9.92605 14.364 10.1213L12.2427 12.2426C11.6855 12.7998 11.0241 13.2417 10.2962 13.5433C9.5682 13.8448 8.78798 14 8.00005 14C7.21212 14 6.4319 13.8448 5.70395 13.5433C4.976 13.2417 4.31456 12.7998 3.75741 12.2426C3.56215 12.0474 3.56215 11.7308 3.75741 11.5355C3.95267 11.3403 4.26925 11.3403 4.46452 11.5355C4.92881 11.9998 5.48 12.3681 6.08663 12.6194C6.69326 12.8707 7.34344 13 8.00005 13C8.65666 13 9.30684 12.8707 9.91347 12.6194C10.5201 12.3681 11.0713 11.9998 11.5356 11.5355L13.6569 9.41421C13.8522 9.21895 14.1687 9.21895 14.364 9.41421Z" fill="black"/>
</svg>
