<svg width="16" height="14" viewBox="0 0 16 14" fill="none" xmlns="http://www.w3.org/2000/svg">
<path d="M15.3062 6.74414H14.4365C14.0938 3.51318 11.3071 0.942383 8 0.942383C6.06396 0.942383 4.31836 1.81836 3.125 3.1958C2.88379 3.46875 2.91553 3.80518 3.16943 3.98291C3.41699 4.16064 3.71533 4.10352 3.9248 3.86865C4.91504 2.73877 6.375 2.02148 8 2.02148C10.7612 2.02148 13.0146 4.07178 13.3447 6.74414H12.3989C11.9482 6.74414 11.834 7.04883 12.0752 7.39795L13.4971 9.42285C13.7002 9.71484 14.0049 9.72119 14.2144 9.42285L15.6299 7.4043C15.8838 7.04883 15.7632 6.74414 15.3062 6.74414ZM0.6875 8.09619H1.56348C1.90625 11.3271 4.68652 13.8916 8 13.8916C9.93604 13.8916 11.688 13.0093 12.8813 11.6382C13.1162 11.3652 13.0845 11.0225 12.8369 10.8447C12.5894 10.667 12.2847 10.7305 12.0815 10.9653C11.0977 12.1016 9.6377 12.8125 8 12.8125C5.23242 12.8125 2.979 10.7686 2.64893 8.09619H3.60107C4.05176 8.09619 4.16602 7.78516 3.9248 7.44238L2.50293 5.41748C2.2998 5.12549 1.99512 5.11914 1.78564 5.41748L0.36377 7.43604C0.116211 7.78516 0.230469 8.09619 0.6875 8.09619Z" fill="black" fill-opacity="0.3"/>
</svg>
