<svg width="16" height="16" viewBox="0 0 16 16" fill="none" xmlns="http://www.w3.org/2000/svg">
<path fill-rule="evenodd" clip-rule="evenodd" d="M1.98956 2.73224C2.26571 2.73224 2.48956 2.9561 2.48956 3.23224V5.73224H4.98956C5.26571 5.73224 5.48956 5.9561 5.48956 6.23224C5.48956 6.50838 5.26571 6.73224 4.98956 6.73224H1.98956C1.71342 6.73224 1.48956 6.50838 1.48956 6.23224V3.23224C1.48956 2.9561 1.71342 2.73224 1.98956 2.73224Z" fill="white"/>
<path fill-rule="evenodd" clip-rule="evenodd" d="M5.7039 2.45672C6.43185 2.15519 7.21207 2 8 2C8.78793 2 9.56815 2.15519 10.2961 2.45672C11.0241 2.75825 11.6855 3.20021 12.2426 3.75736C12.4379 3.95262 12.4379 4.2692 12.2426 4.46447C12.0474 4.65973 11.7308 4.65973 11.5355 4.46447C11.0712 4.00017 10.52 3.63188 9.91342 3.3806C9.30679 3.12933 8.65661 3 8 3C7.34339 3 6.69321 3.12933 6.08658 3.3806C5.47996 3.63188 4.92876 4.00017 4.46447 4.46447L2.34315 6.58579C2.14788 6.78105 1.8313 6.78105 1.63604 6.58579C1.44078 6.39053 1.44078 6.07394 1.63604 5.87868L3.75736 3.75736C4.31451 3.20021 4.97595 2.75825 5.7039 2.45672Z" fill="white"/>
<path fill-rule="evenodd" clip-rule="evenodd" d="M10.5104 9.76776C10.5104 9.49162 10.7343 9.26776 11.0104 9.26776H14.0104C14.2866 9.26776 14.5104 9.49162 14.5104 9.76776V12.7678C14.5104 13.0439 14.2866 13.2678 14.0104 13.2678C13.7343 13.2678 13.5104 13.0439 13.5104 12.7678V10.2678H11.0104C10.7343 10.2678 10.5104 10.0439 10.5104 9.76776Z" fill="white"/>
<path fill-rule="evenodd" clip-rule="evenodd" d="M14.3639 9.41421C14.5592 9.60947 14.5592 9.92605 14.3639 10.1213L12.2426 12.2426C11.6855 12.7998 11.024 13.2417 10.2961 13.5433C9.56814 13.8448 8.78792 14 7.99999 14C7.21206 14 6.43184 13.8448 5.70389 13.5433C4.97593 13.2417 4.3145 12.7998 3.75735 12.2426C3.56209 12.0474 3.56209 11.7308 3.75735 11.5355C3.95261 11.3403 4.26919 11.3403 4.46445 11.5355C4.92875 11.9998 5.47994 12.3681 6.08657 12.6194C6.6932 12.8707 7.34338 13 7.99999 13C8.6566 13 9.30678 12.8707 9.91341 12.6194C10.52 12.3681 11.0712 11.9998 11.5355 11.5355L13.6568 9.41421C13.8521 9.21895 14.1687 9.21895 14.3639 9.41421Z" fill="white"/>
</svg>
