<svg width="17" height="14" viewBox="0 0 17 14" fill="none" xmlns="http://www.w3.org/2000/svg">
<path opacity="0.3" d="M15.6882 6.74414H14.8185C14.4758 3.51318 11.6891 0.942383 8.38202 0.942383C6.44599 0.942383 4.70038 1.81836 3.50702 3.1958C3.26581 3.46875 3.29755 3.80518 3.55145 3.98291C3.79901 4.16064 4.09735 4.10352 4.30683 3.86865C5.29706 2.73877 6.75702 2.02148 8.38202 2.02148C11.1433 2.02148 13.3967 4.07178 13.7267 6.74414H12.7809C12.3303 6.74414 12.216 7.04883 12.4572 7.39795L13.8791 9.42285C14.0822 9.71484 14.3869 9.72119 14.5964 9.42285L16.0119 7.4043C16.2658 7.04883 16.1452 6.74414 15.6882 6.74414ZM1.06952 8.09619H1.9455C2.28827 11.3271 5.06854 13.8916 8.38202 13.8916C10.3181 13.8916 12.07 13.0093 13.2634 11.6382C13.4982 11.3652 13.4665 11.0225 13.2189 10.8447C12.9714 10.667 12.6667 10.7305 12.4636 10.9653C11.4797 12.1016 10.0197 12.8125 8.38202 12.8125C5.61444 12.8125 3.36102 10.7686 3.03095 8.09619H3.9831C4.43378 8.09619 4.54804 7.78516 4.30683 7.44238L2.88495 5.41748C2.68183 5.12549 2.37714 5.11914 2.16767 5.41748L0.745791 7.43604C0.498232 7.78516 0.61249 8.09619 1.06952 8.09619Z" fill="white"/>
</svg>
