<svg width="16" height="16" viewBox="0 0 16 16" fill="none" xmlns="http://www.w3.org/2000/svg">
<path fill-rule="evenodd" clip-rule="evenodd" d="M13.5 3.5C13.7761 3.5 14 3.72386 14 4V7C14 7.27614 13.7761 7.5 13.5 7.5C13.2239 7.5 13 7.27614 13 7V4C13 3.72386 13.2239 3.5 13.5 3.5Z" fill="#686CBF"/>
<path fill-rule="evenodd" clip-rule="evenodd" d="M11.5 5.5C11.5 5.22386 11.7239 5 12 5H15C15.2761 5 15.5 5.22386 15.5 5.5C15.5 5.77614 15.2761 6 15 6H12C11.7239 6 11.5 5.77614 11.5 5.5Z" fill="#686CBF"/>
<path fill-rule="evenodd" clip-rule="evenodd" d="M10.5 1C10.7761 1 11 1.22386 11 1.5V3.5C11 3.77614 10.7761 4 10.5 4C10.2239 4 10 3.77614 10 3.5V1.5C10 1.22386 10.2239 1 10.5 1Z" fill="#686CBF"/>
<path fill-rule="evenodd" clip-rule="evenodd" d="M9 2.5C9 2.22386 9.22386 2 9.5 2H11.5C11.7761 2 12 2.22386 12 2.5C12 2.77614 11.7761 3 11.5 3H9.5C9.22386 3 9 2.77614 9 2.5Z" fill="#686CBF"/>
<path fill-rule="evenodd" clip-rule="evenodd" d="M6.31579 1.97969C6.40942 1.95161 6.51005 1.95138 6.60504 1.9803L6.6052 1.98035C6.81785 2.04509 6.96222 2.24245 6.95952 2.46473C6.95893 2.51348 6.9513 2.56087 6.93747 2.60577C6.69206 3.49802 6.68674 4.43936 6.92216 5.33447C7.15874 6.23402 7.62999 7.0546 8.2877 7.71231C8.94541 8.37002 9.766 8.84126 10.6655 9.07785C11.5602 9.31314 12.501 9.30794 13.3928 9.06291C13.4399 9.04827 13.4896 9.04044 13.5408 9.04039C13.7652 9.04016 13.9622 9.18939 14.0228 9.4054L14.0228 9.40561C14.0487 9.49789 14.0473 9.59487 14.02 9.68519C13.7265 10.7332 13.1644 11.6865 12.3892 12.4506C11.6114 13.2174 10.6463 13.767 9.58996 14.0446C8.53363 14.3223 7.42299 14.3183 6.36867 14.0331C5.31436 13.748 4.35317 13.1915 3.58086 12.4192C2.80854 11.6469 2.25207 10.6857 1.96687 9.63138C1.68167 8.57707 1.6777 7.46642 1.95535 6.4101C2.233 5.35377 2.78258 4.38863 3.54935 3.61082C4.31375 2.83542 5.26738 2.27317 6.31579 1.97969ZM5.79642 3.23343C5.22619 3.49719 4.70579 3.86216 4.26149 4.31285C3.61739 4.96623 3.15573 5.77697 2.9225 6.66431C2.68926 7.55165 2.6926 8.48461 2.93218 9.37026C3.17175 10.2559 3.6392 11.0633 4.28796 11.7121C4.93672 12.3608 5.74414 12.8283 6.62979 13.0678C7.51544 13.3074 8.4484 13.3107 9.33574 13.0775C10.2231 12.8442 11.0338 12.3826 11.6872 11.7385C12.1379 11.2942 12.5028 10.7738 12.7666 10.2036C11.9813 10.3004 11.1818 10.2476 10.4112 10.045C9.34036 9.76333 8.36354 9.20236 7.58059 8.41942C6.79765 7.63648 6.23668 6.65966 5.95505 5.58883C5.75236 4.81817 5.69958 4.01873 5.79642 3.23343Z" fill="#686CBF"/>
</svg>
