<svg width="11" height="12" viewBox="0 0 11 12" fill="none" xmlns="http://www.w3.org/2000/svg">
<path d="M6.11768 2.61572C6.17676 2.61572 6.21436 2.57275 6.2251 2.51367C6.3916 1.62207 6.38623 1.60059 7.3208 1.41797C7.37988 1.40723 7.42285 1.375 7.42285 1.31055C7.42285 1.24072 7.37988 1.2085 7.3208 1.19775C6.38623 1.00977 6.3916 0.993652 6.2251 0.102051C6.21436 0.0429688 6.17676 0 6.11768 0C6.05322 0 6.01562 0.0429688 6.00488 0.102051C5.83301 0.993652 5.84912 1.00977 4.90918 1.19775C4.8501 1.2085 4.8125 1.24072 4.8125 1.31055C4.8125 1.375 4.8501 1.40723 4.90918 1.41797C5.84912 1.60059 5.83301 1.62207 6.00488 2.51367C6.01562 2.57275 6.05322 2.61572 6.11768 2.61572ZM8.68506 6.24658C8.78174 6.24658 8.85156 6.17676 8.86768 6.07471C9.03955 4.63525 9.10938 4.59229 10.5703 4.3667C10.6831 4.34521 10.7529 4.2915 10.7529 4.18408C10.7529 4.08203 10.6831 4.01758 10.5918 4.00146C9.12012 3.72217 9.03955 3.73291 8.86768 2.29346C8.85156 2.19141 8.78174 2.12158 8.68506 2.12158C8.58838 2.12158 8.51318 2.19141 8.50244 2.28809C8.31445 3.74365 8.26611 3.79199 6.77832 4.00146C6.68701 4.01221 6.61719 4.08203 6.61719 4.18408C6.61719 4.28613 6.68701 4.34521 6.77832 4.3667C8.26611 4.64062 8.31982 4.646 8.50244 6.08545C8.51318 6.17676 8.58838 6.24658 8.68506 6.24658ZM4.646 11.2148C6.58496 11.2148 8.13721 10.2319 8.88379 8.57764C8.96973 8.37891 8.95361 8.20703 8.85693 8.11572C8.771 8.03516 8.62061 8.02441 8.45947 8.0835C8.01904 8.25537 7.50879 8.34131 6.92871 8.34131C4.49023 8.34131 2.92725 6.81592 2.92725 4.43652C2.92725 3.75977 3.06152 3.10986 3.22803 2.77686C3.31934 2.58887 3.31396 2.42773 3.2334 2.32568C3.13672 2.21826 2.97021 2.20215 2.75537 2.28271C1.10645 2.93262 0 4.68359 0 6.64941C0 9.26514 1.92822 11.2148 4.646 11.2148Z" fill="white"/>
</svg>
