<svg width="14" height="14" viewBox="0 0 14 14" fill="none" xmlns="http://www.w3.org/2000/svg">
<path opacity="0.4" d="M6.61084 13.3916C10.1528 13.3916 13.0854 10.459 13.0854 6.91699C13.0854 3.38135 10.1465 0.442383 6.60449 0.442383C3.06885 0.442383 0.13623 3.38135 0.13623 6.91699C0.13623 10.459 3.0752 13.3916 6.61084 13.3916ZM6.61084 12.3125C3.61475 12.3125 1.22168 9.91309 1.22168 6.91699C1.22168 3.92725 3.6084 1.52148 6.60449 1.52148C9.60059 1.52148 12 3.92725 12.0063 6.91699C12.0127 9.91309 9.60693 12.3125 6.61084 12.3125ZM4.05273 7.45654H9.1626C9.51807 7.45654 9.75928 7.27246 9.75928 6.93604C9.75928 6.59326 9.53076 6.39648 9.1626 6.39648H4.05273C3.68457 6.39648 3.44971 6.59326 3.44971 6.93604C3.44971 7.27246 3.69727 7.45654 4.05273 7.45654Z" fill="white"/>
</svg>
