<svg width="16" height="16" viewBox="0 0 16 16" fill="none" xmlns="http://www.w3.org/2000/svg">
<path fill-rule="evenodd" clip-rule="evenodd" d="M7.24994 2.5C4.62659 2.5 2.49994 4.62665 2.49994 7.25C2.49994 9.87335 4.62659 12 7.24994 12C9.87329 12 11.9999 9.87335 11.9999 7.25C11.9999 4.62665 9.87329 2.5 7.24994 2.5ZM1.49994 7.25C1.49994 4.07436 4.0743 1.5 7.24994 1.5C10.4256 1.5 12.9999 4.07436 12.9999 7.25C12.9999 10.4256 10.4256 13 7.24994 13C4.0743 13 1.49994 10.4256 1.49994 7.25Z" fill="#5E6163"/>
<path fill-rule="evenodd" clip-rule="evenodd" d="M10.6085 10.609C10.8037 10.4137 11.1203 10.4137 11.3156 10.609L14.3531 13.6465C14.5484 13.8418 14.5484 14.1584 14.3531 14.3536C14.1579 14.5489 13.8413 14.5489 13.646 14.3536L10.6085 11.3161C10.4132 11.1208 10.4132 10.8042 10.6085 10.609Z" fill="#5E6163"/>
</svg>
