<svg width="14" height="14" viewBox="0 0 14 14" fill="none" xmlns="http://www.w3.org/2000/svg">
<g clip-path="url(#clip0)">
<path opacity="0.2" fill-rule="evenodd" clip-rule="evenodd" d="M5.69019 11C2.92876 11 0.690186 8.76142 0.690186 6C0.690186 3.23858 2.92876 1 5.69019 1C8.45161 1 10.6902 3.23858 10.6902 6C10.6902 7.2301 10.246 8.35645 9.50922 9.22739L13.0378 12.6406L12.3426 13.3594L8.79025 9.92321C7.93813 10.5975 6.86117 11 5.69019 11ZM5.69019 10C7.89932 10 9.69019 8.20914 9.69019 6C9.69019 3.79086 7.89932 2 5.69019 2C3.48105 2 1.69019 3.79086 1.69019 6C1.69019 8.20914 3.48105 10 5.69019 10Z" fill="white"/>
</g>
<defs>
<clipPath id="clip0">
<rect width="14" height="13" fill="white" transform="translate(0 0.5)"/>
</clipPath>
</defs>
</svg>
