<svg width="14" height="13" viewBox="0 0 14 13" fill="none" xmlns="http://www.w3.org/2000/svg">
<path opacity="0.2" fill-rule="evenodd" clip-rule="evenodd" d="M5.69019 10C2.92876 10 0.690186 7.76142 0.690186 5C0.690186 2.23858 2.92876 0 5.69019 0C8.45161 0 10.6902 2.23858 10.6902 5C10.6902 6.2301 10.246 7.35645 9.50922 8.22739L13.0378 11.6406L12.3426 12.3594L8.79025 8.92321C7.93813 9.59746 6.86117 10 5.69019 10ZM5.69019 9C7.89932 9 9.69019 7.20914 9.69019 5C9.69019 2.79086 7.89932 1 5.69019 1C3.48105 1 1.69019 2.79086 1.69019 5C1.69019 7.20914 3.48105 9 5.69019 9Z" fill="black"/>
</svg>
