<svg width="16" height="16" viewBox="0 0 16 16" fill="none" xmlns="http://www.w3.org/2000/svg">
<path fill-rule="evenodd" clip-rule="evenodd" d="M3.75 8C3.75 5.65279 5.65279 3.75 8 3.75C10.3472 3.75 12.25 5.65279 12.25 8C12.25 10.3472 10.3472 12.25 8 12.25C5.65279 12.25 3.75 10.3472 3.75 8Z" fill="#58481D"/>
<path fill-rule="evenodd" clip-rule="evenodd" d="M8 0.5C8.27614 0.5 8.5 0.723858 8.5 1V2.25C8.5 2.52614 8.27614 2.75 8 2.75C7.72386 2.75 7.5 2.52614 7.5 2.25V1C7.5 0.723858 7.72386 0.5 8 0.5Z" fill="#58481D"/>
<path fill-rule="evenodd" clip-rule="evenodd" d="M2.69671 2.69671C2.89197 2.50145 3.20855 2.50145 3.40382 2.69671L4.2877 3.58059C4.48296 3.77585 4.48296 4.09244 4.2877 4.2877C4.09244 4.48296 3.77585 4.48296 3.58059 4.2877L2.69671 3.40382C2.50145 3.20855 2.50145 2.89197 2.69671 2.69671Z" fill="#58481D"/>
<path fill-rule="evenodd" clip-rule="evenodd" d="M0.5 8C0.5 7.72386 0.723858 7.5 1 7.5H2.25C2.52614 7.5 2.75 7.72386 2.75 8C2.75 8.27614 2.52614 8.5 2.25 8.5H1C0.723858 8.5 0.5 8.27614 0.5 8Z" fill="#58481D"/>
<path fill-rule="evenodd" clip-rule="evenodd" d="M4.2877 11.7123C4.48296 11.9076 4.48296 12.2241 4.2877 12.4194L3.40382 13.3033C3.20855 13.4986 2.89197 13.4986 2.69671 13.3033C2.50145 13.108 2.50145 12.7914 2.69671 12.5962L3.58059 11.7123C3.77585 11.517 4.09244 11.517 4.2877 11.7123Z" fill="#58481D"/>
<path fill-rule="evenodd" clip-rule="evenodd" d="M8 13.25C8.27614 13.25 8.5 13.4739 8.5 13.75V15C8.5 15.2761 8.27614 15.5 8 15.5C7.72386 15.5 7.5 15.2761 7.5 15V13.75C7.5 13.4739 7.72386 13.25 8 13.25Z" fill="#58481D"/>
<path fill-rule="evenodd" clip-rule="evenodd" d="M11.7123 11.7123C11.9076 11.517 12.2241 11.517 12.4194 11.7123L13.3033 12.5962C13.4986 12.7914 13.4986 13.108 13.3033 13.3033C13.108 13.4986 12.7914 13.4986 12.5962 13.3033L11.7123 12.4194C11.517 12.2241 11.517 11.9076 11.7123 11.7123Z" fill="#58481D"/>
<path fill-rule="evenodd" clip-rule="evenodd" d="M13.25 8C13.25 7.72386 13.4739 7.5 13.75 7.5H15C15.2761 7.5 15.5 7.72386 15.5 8C15.5 8.27614 15.2761 8.5 15 8.5H13.75C13.4739 8.5 13.25 8.27614 13.25 8Z" fill="#58481D"/>
<path fill-rule="evenodd" clip-rule="evenodd" d="M13.3033 2.69671C13.4986 2.89197 13.4986 3.20855 13.3033 3.40382L12.4194 4.2877C12.2241 4.48296 11.9076 4.48296 11.7123 4.2877C11.517 4.09244 11.517 3.77585 11.7123 3.58059L12.5962 2.69671C12.7914 2.50145 13.108 2.50145 13.3033 2.69671Z" fill="#58481D"/>
</svg>
