<svg width="13" height="12" viewBox="0 0 13 12" fill="none" xmlns="http://www.w3.org/2000/svg">
<path d="M7.24561 0.740234C7.24561 0.487793 7.03076 0.272949 6.77295 0.272949C6.52051 0.272949 6.30566 0.487793 6.30566 0.740234V1.86816C6.30566 2.12061 6.52051 2.33545 6.77295 2.33545C7.03076 2.33545 7.24561 2.12061 7.24561 1.86816V0.740234ZM9.42627 2.78662C9.24902 2.96924 9.24902 3.27002 9.42627 3.44727C9.60889 3.62988 9.90967 3.63525 10.0923 3.44727L10.8926 2.64697C11.0752 2.46436 11.0752 2.16357 10.8926 1.98096C10.7153 1.80371 10.4146 1.80371 10.2373 1.98096L9.42627 2.78662ZM3.45361 3.44727C3.63623 3.62988 3.93701 3.62988 4.11426 3.44727C4.29688 3.27539 4.29688 2.96387 4.11963 2.78662L3.31934 1.98096C3.14746 1.80908 2.84131 1.80371 2.65869 1.98096C2.48145 2.1582 2.48145 2.46436 2.65332 2.6416L3.45361 3.44727ZM6.77295 3.36133C5.27441 3.36133 4.03369 4.60205 4.03369 6.10059C4.03369 7.59912 5.27441 8.84521 6.77295 8.84521C8.26611 8.84521 9.50684 7.59912 9.50684 6.10059C9.50684 4.60205 8.26611 3.36133 6.77295 3.36133ZM12.1172 6.56787C12.375 6.56787 12.5898 6.35303 12.5898 6.10059C12.5898 5.84814 12.375 5.6333 12.1172 5.6333H10.9946C10.7422 5.6333 10.5273 5.84814 10.5273 6.10059C10.5273 6.35303 10.7422 6.56787 10.9946 6.56787H12.1172ZM1.42871 5.6333C1.17627 5.6333 0.961426 5.84814 0.961426 6.10059C0.961426 6.35303 1.17627 6.56787 1.42871 6.56787H2.55127C2.80908 6.56787 3.02393 6.35303 3.02393 6.10059C3.02393 5.84814 2.80908 5.6333 2.55127 5.6333H1.42871ZM10.0869 8.75928C9.90967 8.58203 9.60889 8.58203 9.42627 8.75928C9.24902 8.93652 9.24902 9.2373 9.42627 9.41992L10.2373 10.2256C10.4146 10.4028 10.7153 10.3975 10.8926 10.2202C11.0752 10.043 11.0752 9.74219 10.8926 9.55957L10.0869 8.75928ZM2.65332 9.5542C2.47607 9.73145 2.47607 10.0376 2.64795 10.2148C2.8252 10.3921 3.13135 10.3975 3.31396 10.2202L4.11426 9.41992C4.29688 9.24268 4.29688 8.94189 4.11963 8.75928C3.94238 8.58203 3.63623 8.58203 3.45361 8.75928L2.65332 9.5542ZM7.24561 10.333C7.24561 10.0806 7.03076 9.86572 6.77295 9.86572C6.52051 9.86572 6.30566 10.0806 6.30566 10.333V11.4609C6.30566 11.7134 6.52051 11.9282 6.77295 11.9282C7.03076 11.9282 7.24561 11.7134 7.24561 11.4609V10.333Z" fill="#0C0F12"/>
</svg>
